# Blender 4.3.2
# www.blender.org
o no_container1
v -1.265394 8.738012 -1.265394
v -1.280917 8.595016 -1.280917
v -1.265394 8.738012 1.265394
v -1.280917 8.595015 1.280917
v 1.265394 8.738012 -1.265394
v 1.280917 8.595016 -1.280917
v 1.265394 8.738012 1.265394
v 1.280917 8.595015 1.280917
v -1.265394 -0.025960 1.265394
v -1.280917 0.117038 1.280917
v -1.265394 -0.025961 -1.265393
v -1.280917 0.117037 -1.280917
v 1.265394 -0.025960 1.265394
v 1.280917 0.117038 1.280917
v 1.265394 -0.025961 -1.265393
v 1.280917 0.117037 -1.280917
v -1.196324 8.734000 -1.196324
v -1.196324 8.595016 -1.196324
v -1.196324 8.734000 1.196324
v -1.196324 8.595015 1.196324
v 1.196324 8.734000 -1.196324
v 1.196324 8.595016 -1.196324
v 1.196324 8.734000 1.196324
v 1.196324 8.595015 1.196324
v -1.196324 -0.021948 1.196324
v -1.196324 0.117038 1.196324
v -1.196324 -0.021949 -1.196324
v -1.196324 0.117037 -1.196324
v 1.196324 -0.021948 1.196324
v 1.196324 0.117038 1.196324
v 1.196324 -0.021949 -1.196324
v 1.196324 0.117037 -1.196324
vn -0.9942 0.1079 -0.0000
vn -0.0000 0.1079 0.9942
vn 0.9942 0.1079 -0.0000
vn -0.0000 0.1079 -0.9942
vn -0.0000 1.0000 -0.0000
vn -0.9942 -0.1079 -0.0000
vn -0.0000 -0.1079 -0.9942
vn 0.9942 -0.1079 -0.0000
vn -0.0000 -0.1079 0.9942
vn -0.0000 -1.0000 -0.0000
vn 1.0000 -0.0000 -0.0000
vn -0.0000 -0.0000 -1.0000
vn -1.0000 -0.0000 -0.0000
vn -0.0000 -0.0000 1.0000
vt 0.375000 0.000000
vt 0.625000 0.000000
vt 0.625000 0.250000
vt 0.375000 0.250000
vt 0.625000 0.500000
vt 0.375000 0.500000
vt 0.625000 0.750000
vt 0.375000 0.750000
vt 0.625000 1.000000
vt 0.375000 1.000000
vt 0.125000 0.500000
vt 0.125000 0.750000
s 0
f 1/1/1 2/2/1 4/3/1 3/4/1
f 3/4/2 4/3/2 8/5/2 7/6/2
f 7/6/3 8/5/3 6/7/3 5/8/3
f 5/8/4 6/7/4 2/9/4 1/10/4
f 3/11/5 7/6/5 5/8/5 1/12/5
f 9/1/6 10/2/6 12/3/6 11/4/6
f 11/4/7 12/3/7 16/5/7 15/6/7
f 15/6/8 16/5/8 14/7/8 13/8/8
f 13/8/9 14/7/9 10/9/9 9/10/9
f 11/11/10 15/6/10 13/8/10 9/12/10
f 17/1/11 19/4/11 20/3/11 18/2/11
f 19/4/12 23/6/12 24/5/12 20/3/12
f 23/6/13 21/8/13 22/7/13 24/5/13
f 21/8/14 17/10/14 18/9/14 22/7/14
f 19/11/10 17/12/10 21/8/10 23/6/10
f 25/1/11 27/4/11 28/3/11 26/2/11
f 27/4/14 31/6/14 32/5/14 28/3/14
f 31/6/13 29/8/13 30/7/13 32/5/13
f 29/8/12 25/10/12 26/9/12 30/7/12
f 27/11/5 25/12/5 29/8/5 31/6/5
f 4/3/10 2/2/10 18/2/10 20/3/10
f 8/5/10 4/3/10 20/3/10 24/5/10
f 6/7/10 8/5/10 24/5/10 22/7/10
f 2/9/10 6/7/10 22/7/10 18/9/10
f 12/3/5 10/2/5 26/2/5 28/3/5
f 16/5/5 12/3/5 28/3/5 32/5/5
f 14/7/5 16/5/5 32/5/5 30/7/5
f 10/9/5 14/7/5 30/7/5 26/9/5
