# Blender 4.3.2
# www.blender.org
o tup_object.001
v -0.223400 -0.006929 -0.483934
v -0.278070 -0.006824 -0.474706
v -0.330770 -0.006824 -0.447164
v -0.379338 -0.006824 -0.402437
v -0.421909 -0.006824 -0.342244
v -0.456846 -0.006824 -0.268900
v -0.482806 -0.006824 -0.185221
v -0.498792 -0.006824 -0.094425
v -0.504190 -0.006824 0.000000
v -0.498792 -0.006824 0.094425
v -0.482806 -0.006824 0.185221
v -0.456846 -0.006824 0.268900
v -0.421909 -0.006824 0.342244
v -0.379338 -0.006824 0.402437
v -0.330770 -0.006824 0.447164
v -0.278070 -0.006824 0.474706
v -0.223400 -0.006929 0.483934
v 0.000000 -0.007037 0.483868
v 0.000000 -0.007037 -0.483868
v 0.223400 -0.006929 -0.483934
v 0.278070 -0.006824 -0.474706
v 0.330770 -0.006824 -0.447164
v 0.379338 -0.006824 -0.402437
v 0.421909 -0.006824 -0.342244
v 0.456846 -0.006824 -0.268900
v 0.482806 -0.006824 -0.185221
v 0.498792 -0.006824 -0.094425
v 0.504190 -0.006824 0.000000
v 0.498792 -0.006824 0.094425
v 0.482806 -0.006824 0.185221
v 0.456846 -0.006824 0.268900
v 0.421909 -0.006824 0.342244
v 0.379338 -0.006824 0.402437
v 0.330770 -0.006824 0.447164
v 0.278070 -0.006824 0.474706
v 0.223400 -0.006929 0.483934
v -0.223453 0.995183 -0.485804
v -0.278275 0.995183 -0.476477
v -0.331171 0.995183 -0.448832
v -0.379921 0.995183 -0.403938
v -0.422650 0.995183 -0.343521
v -0.457717 0.995183 -0.269903
v -0.483774 0.995183 -0.185912
v -0.499820 0.995183 -0.094777
v -0.505238 0.995183 0.000000
v -0.499820 0.995183 0.094777
v -0.483774 0.995183 0.185912
v -0.457717 0.995183 0.269903
v -0.422650 0.995183 0.343521
v -0.379921 0.995183 0.403938
v -0.331171 0.995183 0.448832
v -0.278275 0.995183 0.476477
v -0.223453 0.995183 0.485804
v 0.000000 0.995183 0.485812
v 0.000000 0.995183 -0.485812
v 0.223453 0.995183 -0.485804
v 0.278275 0.995183 -0.476477
v 0.331171 0.995183 -0.448832
v 0.379921 0.995183 -0.403938
v 0.422650 0.995183 -0.343521
v 0.457717 0.995183 -0.269903
v 0.483774 0.995183 -0.185912
v 0.499820 0.995183 -0.094777
v 0.505238 0.995183 0.000000
v 0.499820 0.995183 0.094777
v 0.483774 0.995183 0.185912
v 0.457717 0.995183 0.269903
v 0.422650 0.995183 0.343521
v 0.379921 0.995183 0.403938
v 0.331171 0.995183 0.448832
v 0.278275 0.995183 0.476477
v 0.223453 0.995183 0.485804
v -0.223264 0.000000 -0.479176
v -0.277523 0.000000 -0.469969
v -0.329697 0.000000 -0.442701
v -0.377781 0.000000 -0.398420
v -0.419927 0.000000 -0.338829
v -0.454515 0.000000 -0.266216
v -0.480216 0.000000 -0.183373
v -0.496043 0.000000 -0.093483
v -0.501387 0.000000 0.000000
v -0.496043 0.000000 0.093483
v -0.480216 0.000000 0.183373
v -0.454515 0.000000 0.266216
v -0.419927 0.000000 0.338829
v -0.377781 0.000000 0.398420
v -0.329697 0.000000 0.442701
v -0.277523 0.000000 0.469969
v -0.223264 0.000000 0.479176
v 0.000000 0.000000 0.479176
v 0.000000 0.000000 -0.479176
v 0.223264 0.000000 -0.479176
v 0.277523 0.000000 -0.469969
v 0.329697 0.000000 -0.442701
v 0.377781 0.000000 -0.398420
v 0.419927 0.000000 -0.338829
v 0.454515 0.000000 -0.266216
v 0.480216 0.000000 -0.183373
v 0.496043 0.000000 -0.093483
v 0.501387 0.000000 0.000000
v 0.496043 0.000000 0.093483
v 0.480216 0.000000 0.183373
v 0.454515 0.000000 0.266216
v 0.419927 0.000000 0.338829
v 0.377781 0.000000 0.398420
v 0.329697 0.000000 0.442701
v 0.277523 0.000000 0.469969
v 0.223264 0.000000 0.479176
v -0.223264 0.995183 -0.479176
v -0.277523 0.995183 -0.469969
v -0.329697 0.995183 -0.442701
v -0.377781 0.995183 -0.398420
v -0.419927 0.995183 -0.338829
v -0.454515 0.995183 -0.266216
v -0.480216 0.995183 -0.183373
v -0.496043 0.995183 -0.093483
v -0.501387 0.995183 0.000000
v -0.496043 0.995183 0.093483
v -0.480216 0.995183 0.183373
v -0.454515 0.995183 0.266216
v -0.419927 0.995183 0.338829
v -0.377781 0.995183 0.398420
v -0.329697 0.995183 0.442701
v -0.277523 0.995183 0.469969
v -0.223264 0.995183 0.479176
v 0.000000 0.995183 0.479176
v 0.000000 0.995183 -0.479176
v 0.223264 0.995183 -0.479176
v 0.277523 0.995183 -0.469969
v 0.329697 0.995183 -0.442701
v 0.377781 0.995183 -0.398420
v 0.419927 0.995183 -0.338829
v 0.454515 0.995183 -0.266216
v 0.480216 0.995183 -0.183373
v 0.496043 0.995183 -0.093483
v 0.501387 0.995183 0.000000
v 0.496043 0.995183 0.093483
v 0.480216 0.995183 0.183373
v 0.454515 0.995183 0.266216
v 0.419927 0.995183 0.338829
v 0.377781 0.995183 0.398420
v 0.329697 0.995183 0.442701
v 0.277523 0.995183 0.469969
v 0.223264 0.995183 0.479176
vn -0.0005 -1.0000 -0.0000
vn 0.0005 -1.0000 -0.0000
vn 0.9551 -0.0011 -0.2963
vn -0.8164 -0.0013 0.5774
vn 0.9849 -0.0011 -0.1734
vn -0.6774 -0.0015 0.7356
vn -0.1671 -0.0018 -0.9859
vn 0.9984 -0.0010 -0.0571
vn -0.4632 -0.0017 0.8863
vn -0.4632 -0.0017 -0.8863
vn 0.9984 -0.0010 0.0571
vn -0.1671 -0.0018 0.9859
vn -0.6774 -0.0015 -0.7356
vn 0.9849 -0.0011 0.1734
vn -0.8164 -0.0013 -0.5774
vn 0.9551 -0.0011 0.2963
vn 0.0001 -0.0019 1.0000
vn -0.9028 -0.0012 -0.4300
vn 0.9028 -0.0012 0.4300
vn 0.0001 -0.0019 -1.0000
vn -0.9551 -0.0011 -0.2963
vn 0.8164 -0.0013 0.5774
vn -0.9849 -0.0011 -0.1734
vn 0.6774 -0.0015 0.7356
vn 0.1671 -0.0018 -0.9859
vn -0.9984 -0.0010 -0.0571
vn 0.4632 -0.0017 0.8863
vn 0.4632 -0.0017 -0.8863
vn -0.9984 -0.0010 0.0571
vn 0.1671 -0.0018 0.9859
vn 0.6774 -0.0015 -0.7356
vn -0.9849 -0.0011 0.1734
vn 0.8164 -0.0013 -0.5774
vn -0.9551 -0.0011 0.2963
vn -0.0001 -0.0019 1.0000
vn 0.9028 -0.0012 -0.4300
vn -0.9028 -0.0012 0.4300
vn -0.0001 -0.0019 -1.0000
vn -0.0000 1.0000 -0.0000
vn -0.9551 -0.0000 0.2963
vn 0.8164 -0.0000 -0.5774
vn -0.9849 -0.0000 0.1734
vn 0.6774 -0.0000 -0.7356
vn 0.1673 -0.0000 0.9859
vn -0.9984 -0.0000 0.0571
vn 0.4632 -0.0000 -0.8863
vn 0.4632 -0.0000 0.8863
vn -0.9984 -0.0000 -0.0571
vn 0.1673 -0.0000 -0.9859
vn 0.6774 -0.0000 0.7356
vn -0.9849 -0.0000 -0.1734
vn 0.8164 -0.0000 0.5774
vn -0.9551 -0.0000 -0.2963
vn -0.0000 -0.0000 -1.0000
vn 0.9028 -0.0000 0.4300
vn -0.9028 -0.0000 -0.4300
vn -0.0000 -0.0000 1.0000
vn 0.9551 -0.0000 0.2963
vn -0.8164 -0.0000 -0.5774
vn 0.9849 -0.0000 0.1734
vn -0.6774 -0.0000 -0.7356
vn -0.1673 -0.0000 0.9859
vn 0.9984 -0.0000 0.0571
vn -0.4632 -0.0000 -0.8863
vn -0.4632 -0.0000 0.8863
vn 0.9984 -0.0000 -0.0571
vn -0.1673 -0.0000 -0.9859
vn -0.6774 -0.0000 0.7356
vn 0.9849 -0.0000 -0.1734
vn -0.8164 -0.0000 0.5774
vn 0.9551 -0.0000 -0.2963
vn -0.9028 -0.0000 0.4300
vn 0.9028 -0.0000 -0.4300
vt 0.000000 0.000000
s 0
f 19/1/1 18/1/1 17/1/1 1/1/1
f 2/1/1 1/1/1 17/1/1 16/1/1 15/1/1 14/1/1 13/1/1 12/1/1 11/1/1 10/1/1 9/1/1 8/1/1 7/1/1 6/1/1 5/1/1 4/1/1 3/1/1
f 19/1/2 20/1/2 36/1/2 18/1/2
f 21/1/2 22/1/2 23/1/2 24/1/2 25/1/2 26/1/2 27/1/2 28/1/2 29/1/2 30/1/2 31/1/2 32/1/2 33/1/2 34/1/2 35/1/2 36/1/2 20/1/2
f 25/1/3 61/1/3 62/1/3 26/1/3
f 14/1/4 50/1/4 49/1/4 13/1/4
f 26/1/5 62/1/5 63/1/5 27/1/5
f 15/1/6 51/1/6 50/1/6 14/1/6
f 2/1/7 38/1/7 37/1/7 1/1/7
f 27/1/8 63/1/8 64/1/8 28/1/8
f 16/1/9 52/1/9 51/1/9 15/1/9
f 3/1/10 39/1/10 38/1/10 2/1/10
f 28/1/11 64/1/11 65/1/11 29/1/11
f 17/1/12 53/1/12 52/1/12 16/1/12
f 4/1/13 40/1/13 39/1/13 3/1/13
f 29/1/14 65/1/14 66/1/14 30/1/14
f 5/1/15 41/1/15 40/1/15 4/1/15
f 30/1/16 66/1/16 67/1/16 31/1/16
f 18/1/17 54/1/17 53/1/17 17/1/17
f 6/1/18 42/1/18 41/1/18 5/1/18
f 31/1/19 67/1/19 68/1/19 32/1/19
f 1/1/20 37/1/20 55/1/20 19/1/20
f 7/1/21 43/1/21 42/1/21 6/1/21
f 32/1/22 68/1/22 69/1/22 33/1/22
f 8/1/23 44/1/23 43/1/23 7/1/23
f 33/1/24 69/1/24 70/1/24 34/1/24
f 20/1/25 56/1/25 57/1/25 21/1/25
f 9/1/26 45/1/26 44/1/26 8/1/26
f 34/1/27 70/1/27 71/1/27 35/1/27
f 21/1/28 57/1/28 58/1/28 22/1/28
f 10/1/29 46/1/29 45/1/29 9/1/29
f 35/1/30 71/1/30 72/1/30 36/1/30
f 22/1/31 58/1/31 59/1/31 23/1/31
f 11/1/32 47/1/32 46/1/32 10/1/32
f 23/1/33 59/1/33 60/1/33 24/1/33
f 12/1/34 48/1/34 47/1/34 11/1/34
f 36/1/35 72/1/35 54/1/35 18/1/35
f 24/1/36 60/1/36 61/1/36 25/1/36
f 13/1/37 49/1/37 48/1/37 12/1/37
f 19/1/38 55/1/38 56/1/38 20/1/38
f 91/1/39 73/1/39 89/1/39 90/1/39
f 74/1/39 75/1/39 76/1/39 77/1/39 78/1/39 79/1/39 80/1/39 81/1/39 82/1/39 83/1/39 84/1/39 85/1/39 86/1/39 87/1/39 88/1/39 89/1/39 73/1/39
f 91/1/39 90/1/39 108/1/39 92/1/39
f 93/1/39 92/1/39 108/1/39 107/1/39 106/1/39 105/1/39 104/1/39 103/1/39 102/1/39 101/1/39 100/1/39 99/1/39 98/1/39 97/1/39 96/1/39 95/1/39 94/1/39
f 97/1/40 98/1/40 134/1/40 133/1/40
f 86/1/41 85/1/41 121/1/41 122/1/41
f 98/1/42 99/1/42 135/1/42 134/1/42
f 87/1/43 86/1/43 122/1/43 123/1/43
f 74/1/44 73/1/44 109/1/44 110/1/44
f 99/1/45 100/1/45 136/1/45 135/1/45
f 88/1/46 87/1/46 123/1/46 124/1/46
f 75/1/47 74/1/47 110/1/47 111/1/47
f 100/1/48 101/1/48 137/1/48 136/1/48
f 89/1/49 88/1/49 124/1/49 125/1/49
f 76/1/50 75/1/50 111/1/50 112/1/50
f 101/1/51 102/1/51 138/1/51 137/1/51
f 77/1/52 76/1/52 112/1/52 113/1/52
f 102/1/53 103/1/53 139/1/53 138/1/53
f 90/1/54 89/1/54 125/1/54 126/1/54
f 78/1/55 77/1/55 113/1/55 114/1/55
f 103/1/56 104/1/56 140/1/56 139/1/56
f 73/1/57 91/1/57 127/1/57 109/1/57
f 79/1/58 78/1/58 114/1/58 115/1/58
f 104/1/59 105/1/59 141/1/59 140/1/59
f 80/1/60 79/1/60 115/1/60 116/1/60
f 105/1/61 106/1/61 142/1/61 141/1/61
f 92/1/62 93/1/62 129/1/62 128/1/62
f 81/1/63 80/1/63 116/1/63 117/1/63
f 106/1/64 107/1/64 143/1/64 142/1/64
f 93/1/65 94/1/65 130/1/65 129/1/65
f 82/1/66 81/1/66 117/1/66 118/1/66
f 107/1/67 108/1/67 144/1/67 143/1/67
f 94/1/68 95/1/68 131/1/68 130/1/68
f 83/1/69 82/1/69 118/1/69 119/1/69
f 95/1/70 96/1/70 132/1/70 131/1/70
f 84/1/71 83/1/71 119/1/71 120/1/71
f 108/1/54 90/1/54 126/1/54 144/1/54
f 96/1/72 97/1/72 133/1/72 132/1/72
f 85/1/73 84/1/73 120/1/73 121/1/73
f 91/1/57 92/1/57 128/1/57 127/1/57
f 37/1/39 38/1/39 110/1/39 109/1/39
f 38/1/39 39/1/39 111/1/39 110/1/39
f 39/1/39 40/1/39 112/1/39 111/1/39
f 40/1/39 41/1/39 113/1/39 112/1/39
f 41/1/39 42/1/39 114/1/39 113/1/39
f 42/1/39 43/1/39 115/1/39 114/1/39
f 43/1/39 44/1/39 116/1/39 115/1/39
f 44/1/39 45/1/39 117/1/39 116/1/39
f 45/1/39 46/1/39 118/1/39 117/1/39
f 46/1/39 47/1/39 119/1/39 118/1/39
f 47/1/39 48/1/39 120/1/39 119/1/39
f 48/1/39 49/1/39 121/1/39 120/1/39
f 49/1/39 50/1/39 122/1/39 121/1/39
f 50/1/39 51/1/39 123/1/39 122/1/39
f 51/1/39 52/1/39 124/1/39 123/1/39
f 52/1/39 53/1/39 125/1/39 124/1/39
f 53/1/39 54/1/39 126/1/39 125/1/39
f 55/1/39 37/1/39 109/1/39 127/1/39
f 57/1/39 56/1/39 128/1/39 129/1/39
f 58/1/39 57/1/39 129/1/39 130/1/39
f 59/1/39 58/1/39 130/1/39 131/1/39
f 60/1/39 59/1/39 131/1/39 132/1/39
f 61/1/39 60/1/39 132/1/39 133/1/39
f 62/1/39 61/1/39 133/1/39 134/1/39
f 63/1/39 62/1/39 134/1/39 135/1/39
f 64/1/39 63/1/39 135/1/39 136/1/39
f 65/1/39 64/1/39 136/1/39 137/1/39
f 66/1/39 65/1/39 137/1/39 138/1/39
f 67/1/39 66/1/39 138/1/39 139/1/39
f 68/1/39 67/1/39 139/1/39 140/1/39
f 69/1/39 68/1/39 140/1/39 141/1/39
f 70/1/39 69/1/39 141/1/39 142/1/39
f 71/1/39 70/1/39 142/1/39 143/1/39
f 72/1/39 71/1/39 143/1/39 144/1/39
f 54/1/39 72/1/39 144/1/39 126/1/39
f 56/1/39 55/1/39 127/1/39 128/1/39
