# Blender 4.3.2
# www.blender.org
o tup_object.001
v -0.223671 -0.020786 -0.493449
v -0.279164 -0.020472 -0.484181
v -0.332916 -0.020472 -0.456089
v -0.382453 -0.020472 -0.410469
v -0.425874 -0.020472 -0.349075
v -0.461508 -0.020472 -0.274267
v -0.487986 -0.020472 -0.188918
v -0.504292 -0.020472 -0.096310
v -0.509797 -0.020472 0.000000
v -0.504292 -0.020472 0.096310
v -0.487986 -0.020472 0.188918
v -0.461508 -0.020472 0.274267
v -0.425874 -0.020472 0.349075
v -0.382453 -0.020472 0.410469
v -0.332916 -0.020472 0.456089
v -0.279164 -0.020472 0.484181
v -0.223671 -0.020786 0.493449
v 0.000000 -0.021111 0.493253
v 0.000000 -0.021111 -0.493253
v 0.223671 -0.020786 -0.493449
v 0.279164 -0.020472 -0.484181
v 0.332916 -0.020472 -0.456089
v 0.382453 -0.020472 -0.410469
v 0.425874 -0.020472 -0.349075
v 0.461508 -0.020472 -0.274267
v 0.487986 -0.020472 -0.188918
v 0.504292 -0.020472 -0.096310
v 0.509797 -0.020472 0.000000
v 0.504292 -0.020472 0.096310
v 0.487986 -0.020472 0.188918
v 0.461508 -0.020472 0.274267
v 0.425874 -0.020472 0.349075
v 0.382453 -0.020472 0.410469
v 0.332916 -0.020472 0.456089
v 0.279164 -0.020472 0.484181
v 0.223671 -0.020786 0.493449
v -0.223831 0.995183 -0.499060
v -0.279777 0.995183 -0.489494
v -0.334119 0.995183 -0.461094
v -0.384200 0.995183 -0.414973
v -0.428097 0.995183 -0.352906
v -0.464122 0.995183 -0.277276
v -0.490891 0.995183 -0.190991
v -0.507376 0.995183 -0.097366
v -0.512942 0.995183 0.000000
v -0.507376 0.995183 0.097366
v -0.490891 0.995183 0.190991
v -0.464122 0.995183 0.277276
v -0.428097 0.995183 0.352906
v -0.384200 0.995183 0.414973
v -0.334119 0.995183 0.461094
v -0.279777 0.995183 0.489494
v -0.223831 0.995183 0.499060
v 0.000000 0.995183 0.499084
v 0.000000 0.995183 -0.499084
v 0.223831 0.995183 -0.499060
v 0.279777 0.995183 -0.489494
v 0.334119 0.995183 -0.461094
v 0.384200 0.995183 -0.414973
v 0.428097 0.995183 -0.352906
v 0.464122 0.995183 -0.277276
v 0.490891 0.995183 -0.190991
v 0.507376 0.995183 -0.097366
v 0.512942 0.995183 0.000000
v 0.507376 0.995183 0.097366
v 0.490891 0.995183 0.190991
v 0.464122 0.995183 0.277276
v 0.428097 0.995183 0.352906
v 0.384200 0.995183 0.414973
v 0.334119 0.995183 0.461094
v 0.279777 0.995183 0.489494
v 0.223831 0.995183 0.499060
v -0.223264 0.000000 -0.479176
v -0.277523 0.000000 -0.469969
v -0.329697 0.000000 -0.442701
v -0.377781 0.000000 -0.398420
v -0.419927 0.000000 -0.338829
v -0.454515 0.000000 -0.266216
v -0.480216 0.000000 -0.183373
v -0.496043 0.000000 -0.093483
v -0.501387 0.000000 0.000000
v -0.496043 0.000000 0.093483
v -0.480216 0.000000 0.183373
v -0.454515 0.000000 0.266216
v -0.419927 0.000000 0.338829
v -0.377781 0.000000 0.398420
v -0.329697 0.000000 0.442701
v -0.277523 0.000000 0.469969
v -0.223264 0.000000 0.479176
v 0.000000 0.000000 0.479176
v 0.000000 0.000000 -0.479176
v 0.223264 0.000000 -0.479176
v 0.277523 0.000000 -0.469969
v 0.329697 0.000000 -0.442701
v 0.377781 0.000000 -0.398420
v 0.419927 0.000000 -0.338829
v 0.454515 0.000000 -0.266216
v 0.480216 0.000000 -0.183373
v 0.496043 0.000000 -0.093483
v 0.501387 0.000000 0.000000
v 0.496043 0.000000 0.093483
v 0.480216 0.000000 0.183373
v 0.454515 0.000000 0.266216
v 0.419927 0.000000 0.338829
v 0.377781 0.000000 0.398420
v 0.329697 0.000000 0.442701
v 0.277523 0.000000 0.469969
v 0.223264 0.000000 0.479176
v -0.223264 0.995183 -0.479176
v -0.277523 0.995183 -0.469969
v -0.329697 0.995183 -0.442701
v -0.377781 0.995183 -0.398420
v -0.419927 0.995183 -0.338829
v -0.454515 0.995183 -0.266216
v -0.480216 0.995183 -0.183373
v -0.496043 0.995183 -0.093483
v -0.501387 0.995183 0.000000
v -0.496043 0.995183 0.093483
v -0.480216 0.995183 0.183373
v -0.454515 0.995183 0.266216
v -0.419927 0.995183 0.338829
v -0.377781 0.995183 0.398420
v -0.329697 0.995183 0.442701
v -0.277523 0.995183 0.469969
v -0.223264 0.995183 0.479176
v 0.000000 0.995183 0.479176
v 0.000000 0.995183 -0.479176
v 0.223264 0.995183 -0.479176
v 0.277523 0.995183 -0.469969
v 0.329697 0.995183 -0.442701
v 0.377781 0.995183 -0.398420
v 0.419927 0.995183 -0.338829
v 0.454515 0.995183 -0.266216
v 0.480216 0.995183 -0.183373
v 0.496043 0.995183 -0.093483
v 0.501387 0.995183 0.000000
v 0.496043 0.995183 0.093483
v 0.480216 0.995183 0.183373
v 0.454515 0.995183 0.266216
v 0.419927 0.995183 0.338829
v 0.377781 0.995183 0.398420
v 0.329697 0.995183 0.442701
v 0.277523 0.995183 0.469969
v 0.223264 0.995183 0.479176
vn -0.0015 -1.0000 -0.0000
vn -0.0014 -1.0000 -0.0000
vn 0.0015 -1.0000 -0.0000
vn 0.0014 -1.0000 -0.0000
vn 0.9551 -0.0033 -0.2963
vn -0.8164 -0.0040 0.5774
vn 0.9848 -0.0032 -0.1734
vn -0.6774 -0.0044 0.7356
vn -0.1667 -0.0054 -0.9860
vn 0.9984 -0.0031 -0.0571
vn -0.4632 -0.0049 0.8862
vn -0.4632 -0.0049 -0.8862
vn 0.9984 -0.0031 0.0571
vn -0.1667 -0.0054 0.9860
vn -0.6774 -0.0044 -0.7356
vn 0.9848 -0.0032 0.1734
vn -0.8164 -0.0040 -0.5774
vn 0.9551 -0.0033 0.2963
vn 0.0004 -0.0056 1.0000
vn -0.9028 -0.0036 -0.4300
vn 0.9028 -0.0036 0.4300
vn 0.0004 -0.0056 -1.0000
vn -0.9551 -0.0033 -0.2963
vn 0.8164 -0.0040 0.5774
vn -0.9848 -0.0032 -0.1734
vn 0.6774 -0.0044 0.7356
vn 0.1667 -0.0054 -0.9860
vn -0.9984 -0.0031 -0.0571
vn 0.4632 -0.0049 0.8862
vn 0.4632 -0.0049 -0.8862
vn -0.9984 -0.0031 0.0571
vn 0.1667 -0.0054 0.9860
vn 0.6774 -0.0044 -0.7356
vn -0.9848 -0.0032 0.1734
vn 0.8164 -0.0040 -0.5774
vn -0.9551 -0.0033 0.2963
vn -0.0004 -0.0056 1.0000
vn 0.9028 -0.0036 -0.4300
vn -0.9028 -0.0036 0.4300
vn -0.0004 -0.0056 -1.0000
vn -0.0000 1.0000 -0.0000
vn -0.9551 -0.0000 0.2963
vn 0.8164 -0.0000 -0.5774
vn -0.9849 -0.0000 0.1734
vn 0.6774 -0.0000 -0.7356
vn 0.1673 -0.0000 0.9859
vn -0.9984 -0.0000 0.0571
vn 0.4632 -0.0000 -0.8863
vn 0.4632 -0.0000 0.8863
vn -0.9984 -0.0000 -0.0571
vn 0.1673 -0.0000 -0.9859
vn 0.6774 -0.0000 0.7356
vn -0.9849 -0.0000 -0.1734
vn 0.8164 -0.0000 0.5774
vn -0.9551 -0.0000 -0.2963
vn -0.0000 -0.0000 -1.0000
vn 0.9028 -0.0000 0.4300
vn -0.9028 -0.0000 -0.4300
vn -0.0000 -0.0000 1.0000
vn 0.9551 -0.0000 0.2963
vn -0.8164 -0.0000 -0.5774
vn 0.9849 -0.0000 0.1734
vn -0.6774 -0.0000 -0.7356
vn -0.1673 -0.0000 0.9859
vn 0.9984 -0.0000 0.0571
vn -0.4632 -0.0000 -0.8863
vn -0.4632 -0.0000 0.8863
vn 0.9984 -0.0000 -0.0571
vn -0.1673 -0.0000 -0.9859
vn -0.6774 -0.0000 0.7356
vn 0.9849 -0.0000 -0.1734
vn -0.8164 -0.0000 0.5774
vn 0.9551 -0.0000 -0.2963
vn -0.9028 -0.0000 0.4300
vn 0.9028 -0.0000 -0.4300
vt 0.000000 0.000000
s 0
f 19/1/1 18/1/1 17/1/1 1/1/1
f 2/1/2 1/1/2 17/1/2 16/1/2 15/1/2 14/1/2 13/1/2 12/1/2 11/1/2 10/1/2 9/1/2 8/1/2 7/1/2 6/1/2 5/1/2 4/1/2 3/1/2
f 19/1/3 20/1/3 36/1/3 18/1/3
f 21/1/4 22/1/4 23/1/4 24/1/4 25/1/4 26/1/4 27/1/4 28/1/4 29/1/4 30/1/4 31/1/4 32/1/4 33/1/4 34/1/4 35/1/4 36/1/4 20/1/4
f 25/1/5 61/1/5 62/1/5 26/1/5
f 14/1/6 50/1/6 49/1/6 13/1/6
f 26/1/7 62/1/7 63/1/7 27/1/7
f 15/1/8 51/1/8 50/1/8 14/1/8
f 2/1/9 38/1/9 37/1/9 1/1/9
f 27/1/10 63/1/10 64/1/10 28/1/10
f 16/1/11 52/1/11 51/1/11 15/1/11
f 3/1/12 39/1/12 38/1/12 2/1/12
f 28/1/13 64/1/13 65/1/13 29/1/13
f 17/1/14 53/1/14 52/1/14 16/1/14
f 4/1/15 40/1/15 39/1/15 3/1/15
f 29/1/16 65/1/16 66/1/16 30/1/16
f 5/1/17 41/1/17 40/1/17 4/1/17
f 30/1/18 66/1/18 67/1/18 31/1/18
f 18/1/19 54/1/19 53/1/19 17/1/19
f 6/1/20 42/1/20 41/1/20 5/1/20
f 31/1/21 67/1/21 68/1/21 32/1/21
f 1/1/22 37/1/22 55/1/22 19/1/22
f 7/1/23 43/1/23 42/1/23 6/1/23
f 32/1/24 68/1/24 69/1/24 33/1/24
f 8/1/25 44/1/25 43/1/25 7/1/25
f 33/1/26 69/1/26 70/1/26 34/1/26
f 20/1/27 56/1/27 57/1/27 21/1/27
f 9/1/28 45/1/28 44/1/28 8/1/28
f 34/1/29 70/1/29 71/1/29 35/1/29
f 21/1/30 57/1/30 58/1/30 22/1/30
f 10/1/31 46/1/31 45/1/31 9/1/31
f 35/1/32 71/1/32 72/1/32 36/1/32
f 22/1/33 58/1/33 59/1/33 23/1/33
f 11/1/34 47/1/34 46/1/34 10/1/34
f 23/1/35 59/1/35 60/1/35 24/1/35
f 12/1/36 48/1/36 47/1/36 11/1/36
f 36/1/37 72/1/37 54/1/37 18/1/37
f 24/1/38 60/1/38 61/1/38 25/1/38
f 13/1/39 49/1/39 48/1/39 12/1/39
f 19/1/40 55/1/40 56/1/40 20/1/40
f 91/1/41 73/1/41 89/1/41 90/1/41
f 74/1/41 75/1/41 76/1/41 77/1/41 78/1/41 79/1/41 80/1/41 81/1/41 82/1/41 83/1/41 84/1/41 85/1/41 86/1/41 87/1/41 88/1/41 89/1/41 73/1/41
f 91/1/41 90/1/41 108/1/41 92/1/41
f 93/1/41 92/1/41 108/1/41 107/1/41 106/1/41 105/1/41 104/1/41 103/1/41 102/1/41 101/1/41 100/1/41 99/1/41 98/1/41 97/1/41 96/1/41 95/1/41 94/1/41
f 97/1/42 98/1/42 134/1/42 133/1/42
f 86/1/43 85/1/43 121/1/43 122/1/43
f 98/1/44 99/1/44 135/1/44 134/1/44
f 87/1/45 86/1/45 122/1/45 123/1/45
f 74/1/46 73/1/46 109/1/46 110/1/46
f 99/1/47 100/1/47 136/1/47 135/1/47
f 88/1/48 87/1/48 123/1/48 124/1/48
f 75/1/49 74/1/49 110/1/49 111/1/49
f 100/1/50 101/1/50 137/1/50 136/1/50
f 89/1/51 88/1/51 124/1/51 125/1/51
f 76/1/52 75/1/52 111/1/52 112/1/52
f 101/1/53 102/1/53 138/1/53 137/1/53
f 77/1/54 76/1/54 112/1/54 113/1/54
f 102/1/55 103/1/55 139/1/55 138/1/55
f 90/1/56 89/1/56 125/1/56 126/1/56
f 78/1/57 77/1/57 113/1/57 114/1/57
f 103/1/58 104/1/58 140/1/58 139/1/58
f 73/1/59 91/1/59 127/1/59 109/1/59
f 79/1/60 78/1/60 114/1/60 115/1/60
f 104/1/61 105/1/61 141/1/61 140/1/61
f 80/1/62 79/1/62 115/1/62 116/1/62
f 105/1/63 106/1/63 142/1/63 141/1/63
f 92/1/64 93/1/64 129/1/64 128/1/64
f 81/1/65 80/1/65 116/1/65 117/1/65
f 106/1/66 107/1/66 143/1/66 142/1/66
f 93/1/67 94/1/67 130/1/67 129/1/67
f 82/1/68 81/1/68 117/1/68 118/1/68
f 107/1/69 108/1/69 144/1/69 143/1/69
f 94/1/70 95/1/70 131/1/70 130/1/70
f 83/1/71 82/1/71 118/1/71 119/1/71
f 95/1/72 96/1/72 132/1/72 131/1/72
f 84/1/73 83/1/73 119/1/73 120/1/73
f 108/1/56 90/1/56 126/1/56 144/1/56
f 96/1/74 97/1/74 133/1/74 132/1/74
f 85/1/75 84/1/75 120/1/75 121/1/75
f 91/1/59 92/1/59 128/1/59 127/1/59
f 37/1/41 38/1/41 110/1/41 109/1/41
f 38/1/41 39/1/41 111/1/41 110/1/41
f 39/1/41 40/1/41 112/1/41 111/1/41
f 40/1/41 41/1/41 113/1/41 112/1/41
f 41/1/41 42/1/41 114/1/41 113/1/41
f 42/1/41 43/1/41 115/1/41 114/1/41
f 43/1/41 44/1/41 116/1/41 115/1/41
f 44/1/41 45/1/41 117/1/41 116/1/41
f 45/1/41 46/1/41 118/1/41 117/1/41
f 46/1/41 47/1/41 119/1/41 118/1/41
f 47/1/41 48/1/41 120/1/41 119/1/41
f 48/1/41 49/1/41 121/1/41 120/1/41
f 49/1/41 50/1/41 122/1/41 121/1/41
f 50/1/41 51/1/41 123/1/41 122/1/41
f 51/1/41 52/1/41 124/1/41 123/1/41
f 52/1/41 53/1/41 125/1/41 124/1/41
f 53/1/41 54/1/41 126/1/41 125/1/41
f 55/1/41 37/1/41 109/1/41 127/1/41
f 57/1/41 56/1/41 128/1/41 129/1/41
f 58/1/41 57/1/41 129/1/41 130/1/41
f 59/1/41 58/1/41 130/1/41 131/1/41
f 60/1/41 59/1/41 131/1/41 132/1/41
f 61/1/41 60/1/41 132/1/41 133/1/41
f 62/1/41 61/1/41 133/1/41 134/1/41
f 63/1/41 62/1/41 134/1/41 135/1/41
f 64/1/41 63/1/41 135/1/41 136/1/41
f 65/1/41 64/1/41 136/1/41 137/1/41
f 66/1/41 65/1/41 137/1/41 138/1/41
f 67/1/41 66/1/41 138/1/41 139/1/41
f 68/1/41 67/1/41 139/1/41 140/1/41
f 69/1/41 68/1/41 140/1/41 141/1/41
f 70/1/41 69/1/41 141/1/41 142/1/41
f 71/1/41 70/1/41 142/1/41 143/1/41
f 72/1/41 71/1/41 143/1/41 144/1/41
f 54/1/41 72/1/41 144/1/41 126/1/41
f 56/1/41 55/1/41 127/1/41 128/1/41
